# xmcd CD database file
#
# Track frame offsets:
#	150
#	17350
#	34392
#	51592
#
# Disc length: 912 seconds
#
# Revision: 0
# Processed by: cddbd v1.5.1PL0 Copyright (c) Steve Scherf et al.
# Submitted via: CDex 1.51
#
DISCID=2e038e04
DTITLE=BoA - QUINCY - コノヨノシルシ
DYEAR=2004
DGENRE=Japanese Pop
TTITLE0=QUINCY
TTITLE1=コノヨノシルシ
TTITLE2=QUINCY(Instrumental)
TTITLE3=コノヨノシルシ(Instrumental)
EXTD=YEAR: 2004
EXTT0=
EXTT1=
EXTT2=
EXTT3=
PLAYORDER=
